<?xml version="1.0" encoding="UTF-8"?><svg id="a" xmlns="http://www.w3.org/2000/svg" viewBox="0 0 2050 550"><polygon points="253.84 123.36 221.92 353.48 287.76 353.48 255.17 123.36 253.84 123.36"/><path d="M0,0v550h2050V0H0ZM309.71,507.78l-13.3-92.45v1.33h-83.14l-13.3,91.12h-67.84L207.95,42.22h99.1l75.82,465.56h-73.16ZM783.91,108.73h-126.37v123.04h100.43v66.51h-100.43v142.99h126.37v66.51h-199.53V42.22h199.53v66.51h0ZM1204.91,192.53h-69.17v-44.56c0-30.59-12.64-45.89-37.91-45.89s-37.91,15.3-37.91,45.89v254.73c0,30.16,12.64,45.23,37.91,45.23s37.91-15.07,37.91-45.23v-91.12h-36.58v-66.51h105.75v152.31c0,37.69-9.31,66.62-27.93,86.79-18.62,20.18-45.67,30.26-81.14,30.26s-62.52-10.08-81.14-30.26c-18.62-20.17-27.93-49.1-27.93-86.79v-244.75c0-37.68,9.31-66.61,27.93-86.79,18.62-20.17,45.66-30.26,81.14-30.26s62.52,10.09,81.14,30.26c18.62,20.18,27.93,49.11,27.93,86.79v39.91h0ZM1491.55,507.78h-73.16V42.22h73.16v465.56ZM1889.6,483.84c-18.85,20.4-46.22,30.59-82.14,30.59s-62.3-10.08-80.48-30.26c-18.19-20.17-27.27-49.1-27.27-86.79v-26.6h69.17v31.92c0,30.16,12.64,45.23,37.91,45.23,12.41,0,21.83-3.66,28.27-10.97,6.42-7.32,9.64-19.17,9.64-35.58,0-19.51-4.44-36.68-13.3-51.54-8.87-14.85-25.27-32.69-49.22-53.54-30.16-26.6-51.21-50.65-63.18-72.16-11.97-21.5-17.96-45.78-17.96-72.83,0-36.8,9.31-65.28,27.93-85.46,18.62-20.17,45.66-30.26,81.14-30.26s61.52,10.09,79.48,30.26c17.96,20.18,26.94,49.11,26.94,86.79v19.29h-69.17v-23.94c0-15.96-3.11-27.6-9.31-34.92-6.21-7.32-15.3-10.97-27.27-10.97-24.39,0-36.58,14.86-36.58,44.56,0,16.86,4.54,32.59,13.63,47.22,9.08,14.63,25.61,32.37,49.55,53.21,30.59,26.6,51.65,50.78,63.18,72.49,11.52,21.73,17.29,47.22,17.29,76.49,0,38.14-9.43,67.4-28.27,87.79l.02-.02Z"/></svg>